<svg width="43" height="60" viewBox="0 0 43 60" fill="none" xmlns="http://www.w3.org/2000/svg">
<path d="M43 46.8931C39.7382 48.3228 40.0056 51.6621 36.3004 56.2719C32.7766 60.6561 26.7187 61.252 20.9583 57.642C19.1985 56.5391 14.7781 55.2977 12.6638 51.2924C10.6376 47.4539 9.34331 38.5222 10.6851 33.5291C11.3375 31.1011 13.3466 29.05 15.8895 27.7749C18.3282 26.552 20.1993 25.7858 17.5429 21.4151C17.5429 21.4151 15.4094 22.5517 15.0849 23.6656C14.6301 25.2265 9.161 29.1685 8.73225 29.8105C7.39868 31.8077 5.52896 32.4105 4.58559 32.9232C4.43334 32.098 6.67362 30.9471 5.69485 30.7082C4.71609 30.4693 1.96937 31.9217 1.73631 31.2945C1.65397 31.0729 3.1697 30.6112 3.38933 30.2088C2.41057 29.9699 1.82331 29.4921 1.82331 29.4921C1.82331 29.4921 6.08636 29.1013 7.80463 29.3619C8.58823 28.2113 9.5664 25.9743 11.7197 23.933C11.7197 23.933 9.0363 24.2321 8.61569 24.4469C8.19509 24.6618 8.16574 26.1266 7.90164 26.2048C7.63754 26.2829 8.68416 23.695 4.99943 24.593C4.99943 24.593 3.63973 25.9819 3.54002 28.428C3.54002 28.428 2.85548 27.7286 2.47341 26.7047C2.27238 26.1659 1.22665 27.0861 0.80436 26.785C1.80414 26.1137 2.02953 24.998 1.89025 23.6731C0.990147 23.8574 0.404727 23.6085 0 23.1109C1.78436 23.3214 3.27316 20.7489 4.62507 16.8871L2.85548 17.911C3.65984 13.2331 7.19903 14.0764 9.61211 10.1413C8.84143 9.8746 8.1874 10.037 7.62132 10.5228C8.7072 8.25409 10.9176 10.9463 12.8422 4.88422C13.2759 3.61227 14.1147 3.01942 15.2389 1.98411C16.1053 1.18619 16.7627 0.471346 18.2766 0.063567C19.4189 -0.244137 23.9271 0.522168 25.485 3.31018C26.8399 5.73476 26.1627 11.1584 24.0755 12.7821C24.0755 12.7821 23.7367 13.364 24.3466 13.8511C24.9565 14.3382 26.0949 15.5967 27.396 18.9254C27.9652 20.6709 31.1096 20.6033 34.3216 23.3637C34.3734 22.3461 34.9535 21.4813 35.5097 20.691C36.2088 19.6977 36.9481 18.8972 37.4342 18.9082C39.319 20.1363 36.3411 22.5382 36.3411 22.5382C36.6134 22.6794 37.0704 22.6846 37.6326 22.6123C37.0314 23.944 35.1077 24.798 34.3773 24.7931C32.6244 24.7813 28.3854 23.1742 25.6779 21.7467C24.9897 22.434 24.3135 24.2292 23.4893 26.0429C22.6762 29.8046 27.3033 34.9945 18.3934 41.7122C17.2448 42.5782 16.4383 46.3303 16.4858 48.3425C16.5676 51.8072 18.3426 54.238 21.4462 56.0013C26.9321 54.1861 23.6973 43.5601 38.5604 41.0255C35.5214 44.0305 35.072 46.5921 33.4271 49.9392C36.9566 49.2259 35.6058 47.7024 43 46.8931Z" fill="black"/>
</svg>
